<svg width="49" height="48" viewBox="0 0 49 48" fill="none" xmlns="http://www.w3.org/2000/svg">
<path d="M45.2971 40.7765L11.5647 47.9181C9.60234 48.3345 7.67633 47.0854 7.25842 45.1302L0.0813246 11.5221C-0.336582 9.56698 0.917139 7.64807 2.87948 7.2317L36.6119 0.0810287C38.5742 -0.335339 40.5002 0.913765 40.9181 2.86888L48.0952 36.477C48.5131 38.4322 47.2594 40.3601 45.2971 40.7765Z" fill="url(#paint0_linear_716_1354)"/>
<path d="M38.6203 42.0985H9.54852C7.54075 42.0985 5.91455 40.4783 5.91455 38.4779V9.51317C5.91455 7.51279 7.54075 5.89258 9.54852 5.89258H38.6203C40.6281 5.89258 42.2543 7.51279 42.2543 9.51317V38.4779C42.2543 40.4783 40.6281 42.0985 38.6203 42.0985Z" fill="#05061D"/>
<path d="M25.2107 15.7856C27.0459 15.7856 28.5267 16.374 29.6623 17.5416C30.7888 18.7093 31.3612 20.3114 31.3612 22.357V32.1417H27.9089V22.71C27.9089 21.5243 27.5909 20.6101 26.9459 19.9674C26.31 19.3338 25.4287 19.008 24.3204 19.008C23.103 19.008 22.1218 19.3881 21.3769 20.1394C20.6319 20.8907 20.2594 22.0493 20.2594 23.5971V32.1417H16.8071V16.202H20.2594V18.2386C21.2951 16.6093 22.9485 15.7856 25.2107 15.7856Z" fill="white"/>
<defs>
<linearGradient id="paint0_linear_716_1354" x1="24.0883" y1="0.000976562" x2="24.0883" y2="47.9982" gradientUnits="userSpaceOnUse">
<stop stop-color="#DEF446"/>
<stop offset="1" stop-color="#73F446"/>
</linearGradient>
</defs>
</svg>
